<?xml version="1.0" encoding="UTF-8" standalone="no"?>
<!DOCTYPE svg PUBLIC "-//W3C//DTD SVG 1.1//EN"
 "http://www.w3.org/Graphics/SVG/1.1/DTD/svg11.dtd">
<!-- Generated by graphviz version 2.47.0 (20210316.0004)
 -->
<!-- Title: dbml Pages: 1 -->
<svg width="2128pt" height="2630pt"
 viewBox="0.00 0.00 2127.78 2630.05" xmlns="http://www.w3.org/2000/svg" xmlns:xlink="http://www.w3.org/1999/xlink">
<g id="graph0" class="graph" transform="scale(1 1) rotate(0) translate(4 2626.05)">
<title>dbml</title>
<!-- Address -->
<g id="Address" class="node">
<title>Address</title>
<ellipse fill="none" stroke="black" stroke-width="0" cx="1052.82" cy="-1257.09" rx="294.31" ry="384.83"/>
<polygon fill="#1d71b8" stroke="transparent" points="846.82,-1467.09 846.82,-1527.09 1258.82,-1527.09 1258.82,-1467.09 846.82,-1467.09"/>
<polygon fill="none" stroke="#29235c" points="846.82,-1467.09 846.82,-1527.09 1258.82,-1527.09 1258.82,-1467.09 846.82,-1467.09"/>
<text text-anchor="start" x="931.89" y="-1488.29" font-family="Helvetica,sans-Serif" font-weight="bold" font-size="32.00" fill="#ffffff"> &#160;&#160;&#160;&#160;&#160;&#160;Address &#160;&#160;&#160;&#160;&#160;&#160;</text>
<polygon fill="#e7e2dd" stroke="transparent" points="846.82,-1407.09 846.82,-1467.09 1258.82,-1467.09 1258.82,-1407.09 846.82,-1407.09"/>
<polygon fill="none" stroke="#29235c" points="846.82,-1407.09 846.82,-1467.09 1258.82,-1467.09 1258.82,-1407.09 846.82,-1407.09"/>
<text text-anchor="start" x="857.82" y="-1427.29" font-family="Helvetica,sans-Serif" font-size="32.00" fill="#29235c">id &#160;&#160;&#160;</text>
<text text-anchor="start" x="1105.6" y="-1428.29" font-family="Helvetica,sans-Serif" font-style="italic" font-size="32.00" fill="#29235c">INTEGER</text>
<polygon fill="#e7e2dd" stroke="transparent" points="846.82,-1347.09 846.82,-1407.09 1258.82,-1407.09 1258.82,-1347.09 846.82,-1347.09"/>
<polygon fill="none" stroke="#29235c" points="846.82,-1347.09 846.82,-1407.09 1258.82,-1407.09 1258.82,-1347.09 846.82,-1347.09"/>
<text text-anchor="start" x="857.82" y="-1367.29" font-family="Helvetica,sans-Serif" font-size="32.00" fill="#29235c">customer_id &#160;&#160;&#160;</text>
<text text-anchor="start" x="1105.6" y="-1368.29" font-family="Helvetica,sans-Serif" font-style="italic" font-size="32.00" fill="#29235c">INTEGER</text>
<polygon fill="#e7e2dd" stroke="transparent" points="846.82,-1287.09 846.82,-1347.09 1258.82,-1347.09 1258.82,-1287.09 846.82,-1287.09"/>
<polygon fill="none" stroke="#29235c" points="846.82,-1287.09 846.82,-1347.09 1258.82,-1347.09 1258.82,-1287.09 846.82,-1287.09"/>
<text text-anchor="start" x="857.45" y="-1307.29" font-family="Helvetica,sans-Serif" font-size="32.00" fill="#29235c">address_line1 &#160;&#160;&#160;</text>
<text text-anchor="start" x="1091.61" y="-1308.29" font-family="Helvetica,sans-Serif" font-style="italic" font-size="32.00" fill="#29235c">VARCHAR</text>
<polygon fill="#e7e2dd" stroke="transparent" points="846.82,-1227.09 846.82,-1287.09 1258.82,-1287.09 1258.82,-1227.09 846.82,-1227.09"/>
<polygon fill="none" stroke="#29235c" points="846.82,-1227.09 846.82,-1287.09 1258.82,-1287.09 1258.82,-1227.09 846.82,-1227.09"/>
<text text-anchor="start" x="857.45" y="-1247.29" font-family="Helvetica,sans-Serif" font-size="32.00" fill="#29235c">address_line2 &#160;&#160;&#160;</text>
<text text-anchor="start" x="1091.61" y="-1248.29" font-family="Helvetica,sans-Serif" font-style="italic" font-size="32.00" fill="#29235c">VARCHAR</text>
<polygon fill="#e7e2dd" stroke="transparent" points="846.82,-1167.09 846.82,-1227.09 1258.82,-1227.09 1258.82,-1167.09 846.82,-1167.09"/>
<polygon fill="none" stroke="#29235c" points="846.82,-1167.09 846.82,-1227.09 1258.82,-1227.09 1258.82,-1167.09 846.82,-1167.09"/>
<text text-anchor="start" x="857.82" y="-1187.29" font-family="Helvetica,sans-Serif" font-size="32.00" fill="#29235c">city &#160;&#160;&#160;</text>
<text text-anchor="start" x="1091.39" y="-1188.29" font-family="Helvetica,sans-Serif" font-style="italic" font-size="32.00" fill="#29235c">VARCHAR</text>
<polygon fill="#e7e2dd" stroke="transparent" points="846.82,-1107.09 846.82,-1167.09 1258.82,-1167.09 1258.82,-1107.09 846.82,-1107.09"/>
<polygon fill="none" stroke="#29235c" points="846.82,-1107.09 846.82,-1167.09 1258.82,-1167.09 1258.82,-1107.09 846.82,-1107.09"/>
<text text-anchor="start" x="857.82" y="-1127.29" font-family="Helvetica,sans-Serif" font-size="32.00" fill="#29235c">state &#160;&#160;&#160;</text>
<text text-anchor="start" x="1091.39" y="-1128.29" font-family="Helvetica,sans-Serif" font-style="italic" font-size="32.00" fill="#29235c">VARCHAR</text>
<polygon fill="#e7e2dd" stroke="transparent" points="846.82,-1047.09 846.82,-1107.09 1258.82,-1107.09 1258.82,-1047.09 846.82,-1047.09"/>
<polygon fill="none" stroke="#29235c" points="846.82,-1047.09 846.82,-1107.09 1258.82,-1107.09 1258.82,-1047.09 846.82,-1047.09"/>
<text text-anchor="start" x="857.82" y="-1067.29" font-family="Helvetica,sans-Serif" font-size="32.00" fill="#29235c">postal_code &#160;&#160;&#160;</text>
<text text-anchor="start" x="1091.39" y="-1068.29" font-family="Helvetica,sans-Serif" font-style="italic" font-size="32.00" fill="#29235c">VARCHAR</text>
<polygon fill="#e7e2dd" stroke="transparent" points="846.82,-987.09 846.82,-1047.09 1258.82,-1047.09 1258.82,-987.09 846.82,-987.09"/>
<polygon fill="none" stroke="#29235c" points="846.82,-987.09 846.82,-1047.09 1258.82,-1047.09 1258.82,-987.09 846.82,-987.09"/>
<text text-anchor="start" x="857.82" y="-1007.29" font-family="Helvetica,sans-Serif" font-size="32.00" fill="#29235c">country &#160;&#160;&#160;</text>
<text text-anchor="start" x="1091.39" y="-1008.29" font-family="Helvetica,sans-Serif" font-style="italic" font-size="32.00" fill="#29235c">VARCHAR</text>
<polygon fill="none" stroke="#29235c" stroke-width="2" points="845.82,-986.09 845.82,-1528.09 1259.82,-1528.09 1259.82,-986.09 845.82,-986.09"/>
</g>
<!-- Customer -->
<g id="Customer" class="node">
<title>Customer</title>
<ellipse fill="none" stroke="black" stroke-width="0" cx="1814.31" cy="-1602.09" rx="305.44" ry="257.27"/>
<polygon fill="#1d71b8" stroke="transparent" points="1600.31,-1722.09 1600.31,-1782.09 2028.31,-1782.09 2028.31,-1722.09 1600.31,-1722.09"/>
<polygon fill="none" stroke="#29235c" points="1600.31,-1722.09 1600.31,-1782.09 2028.31,-1782.09 2028.31,-1722.09 1600.31,-1722.09"/>
<text text-anchor="start" x="1682.73" y="-1743.29" font-family="Helvetica,sans-Serif" font-weight="bold" font-size="32.00" fill="#ffffff"> &#160;&#160;&#160;&#160;&#160;&#160;Customer &#160;&#160;&#160;&#160;&#160;&#160;</text>
<polygon fill="#e7e2dd" stroke="transparent" points="1600.31,-1662.09 1600.31,-1722.09 2028.31,-1722.09 2028.31,-1662.09 1600.31,-1662.09"/>
<polygon fill="none" stroke="#29235c" points="1600.31,-1662.09 1600.31,-1722.09 2028.31,-1722.09 2028.31,-1662.09 1600.31,-1662.09"/>
<text text-anchor="start" x="1611.31" y="-1682.29" font-family="Helvetica,sans-Serif" font-size="32.00" fill="#29235c">id &#160;&#160;&#160;</text>
<text text-anchor="start" x="1875.09" y="-1683.29" font-family="Helvetica,sans-Serif" font-style="italic" font-size="32.00" fill="#29235c">INTEGER</text>
<polygon fill="#e7e2dd" stroke="transparent" points="1600.31,-1602.09 1600.31,-1662.09 2028.31,-1662.09 2028.31,-1602.09 1600.31,-1602.09"/>
<polygon fill="none" stroke="#29235c" points="1600.31,-1602.09 1600.31,-1662.09 2028.31,-1662.09 2028.31,-1602.09 1600.31,-1602.09"/>
<text text-anchor="start" x="1611.31" y="-1622.29" font-family="Helvetica,sans-Serif" font-size="32.00" fill="#29235c">first_name &#160;&#160;&#160;</text>
<text text-anchor="start" x="1860.89" y="-1623.29" font-family="Helvetica,sans-Serif" font-style="italic" font-size="32.00" fill="#29235c">VARCHAR</text>
<polygon fill="#e7e2dd" stroke="transparent" points="1600.31,-1542.09 1600.31,-1602.09 2028.31,-1602.09 2028.31,-1542.09 1600.31,-1542.09"/>
<polygon fill="none" stroke="#29235c" points="1600.31,-1542.09 1600.31,-1602.09 2028.31,-1602.09 2028.31,-1542.09 1600.31,-1542.09"/>
<text text-anchor="start" x="1611.31" y="-1562.29" font-family="Helvetica,sans-Serif" font-size="32.00" fill="#29235c">last_name &#160;&#160;&#160;</text>
<text text-anchor="start" x="1860.89" y="-1563.29" font-family="Helvetica,sans-Serif" font-style="italic" font-size="32.00" fill="#29235c">VARCHAR</text>
<polygon fill="#e7e2dd" stroke="transparent" points="1600.31,-1482.09 1600.31,-1542.09 2028.31,-1542.09 2028.31,-1482.09 1600.31,-1482.09"/>
<polygon fill="none" stroke="#29235c" points="1600.31,-1482.09 1600.31,-1542.09 2028.31,-1542.09 2028.31,-1482.09 1600.31,-1482.09"/>
<text text-anchor="start" x="1611.31" y="-1502.29" font-family="Helvetica,sans-Serif" font-size="32.00" fill="#29235c">email &#160;&#160;&#160;</text>
<text text-anchor="start" x="1860.89" y="-1503.29" font-family="Helvetica,sans-Serif" font-style="italic" font-size="32.00" fill="#29235c">VARCHAR</text>
<polygon fill="#e7e2dd" stroke="transparent" points="1600.31,-1422.09 1600.31,-1482.09 2028.31,-1482.09 2028.31,-1422.09 1600.31,-1422.09"/>
<polygon fill="none" stroke="#29235c" points="1600.31,-1422.09 1600.31,-1482.09 2028.31,-1482.09 2028.31,-1422.09 1600.31,-1422.09"/>
<text text-anchor="start" x="1610.93" y="-1442.29" font-family="Helvetica,sans-Serif" font-size="32.00" fill="#29235c">phone_number &#160;&#160;&#160;</text>
<text text-anchor="start" x="1861.1" y="-1443.29" font-family="Helvetica,sans-Serif" font-style="italic" font-size="32.00" fill="#29235c">VARCHAR</text>
<polygon fill="none" stroke="#29235c" stroke-width="2" points="1599.31,-1421.09 1599.31,-1783.09 2029.31,-1783.09 2029.31,-1421.09 1599.31,-1421.09"/>
</g>
<!-- Address&#45;&gt;Customer -->
<!-- Address&#45;&gt;Customer -->
<g id="edge2" class="edge">
<title>Address:e&#45;&gt;Customer:w</title>
<path fill="none" stroke="#29235c" stroke-width="3" d="M1259.82,-1377.09C1462.23,-1377.09 1395.8,-1681.72 1589.29,-1691.83"/>
<polygon fill="#29235c" stroke="#29235c" stroke-width="3" points="1589.22,-1695.33 1599.31,-1692.09 1589.4,-1688.34 1589.22,-1695.33"/>
<text text-anchor="middle" x="1605.53" y="-1692.09" font-family="Helvetica,sans-Serif" font-size="32.00" fill="#29235c">*</text>
<text text-anchor="middle" x="1268.71" y="-1348.29" font-family="Helvetica,sans-Serif" font-size="32.00" fill="#29235c">1</text>
</g>
<!-- CustomerInsight -->
<g id="CustomerInsight" class="node">
<title>CustomerInsight</title>
<ellipse fill="none" stroke="black" stroke-width="0" cx="1052.82" cy="-427.09" rx="420.04" ry="427.19"/>
<polygon fill="#1d71b8" stroke="transparent" points="757.82,-667.09 757.82,-727.09 1347.82,-727.09 1347.82,-667.09 757.82,-667.09"/>
<polygon fill="none" stroke="#29235c" points="757.82,-667.09 757.82,-727.09 1347.82,-727.09 1347.82,-667.09 757.82,-667.09"/>
<text text-anchor="start" x="874.11" y="-688.29" font-family="Helvetica,sans-Serif" font-weight="bold" font-size="32.00" fill="#ffffff"> &#160;&#160;&#160;&#160;&#160;&#160;CustomerInsight &#160;&#160;&#160;&#160;&#160;&#160;</text>
<polygon fill="#e7e2dd" stroke="transparent" points="757.82,-607.09 757.82,-667.09 1347.82,-667.09 1347.82,-607.09 757.82,-607.09"/>
<polygon fill="none" stroke="#29235c" points="757.82,-607.09 757.82,-667.09 1347.82,-667.09 1347.82,-607.09 757.82,-607.09"/>
<text text-anchor="start" x="768.82" y="-627.29" font-family="Helvetica,sans-Serif" font-size="32.00" fill="#29235c">id &#160;&#160;&#160;</text>
<text text-anchor="start" x="1194.6" y="-628.29" font-family="Helvetica,sans-Serif" font-style="italic" font-size="32.00" fill="#29235c">INTEGER</text>
<polygon fill="#e7e2dd" stroke="transparent" points="757.82,-547.09 757.82,-607.09 1347.82,-607.09 1347.82,-547.09 757.82,-547.09"/>
<polygon fill="none" stroke="#29235c" points="757.82,-547.09 757.82,-607.09 1347.82,-607.09 1347.82,-547.09 757.82,-547.09"/>
<text text-anchor="start" x="768.82" y="-567.29" font-family="Helvetica,sans-Serif" font-size="32.00" fill="#29235c">customer_id &#160;&#160;&#160;</text>
<text text-anchor="start" x="1194.6" y="-568.29" font-family="Helvetica,sans-Serif" font-style="italic" font-size="32.00" fill="#29235c">INTEGER</text>
<polygon fill="#e7e2dd" stroke="transparent" points="757.82,-487.09 757.82,-547.09 1347.82,-547.09 1347.82,-487.09 757.82,-487.09"/>
<polygon fill="none" stroke="#29235c" points="757.82,-487.09 757.82,-547.09 1347.82,-547.09 1347.82,-487.09 757.82,-487.09"/>
<text text-anchor="start" x="768.82" y="-507.29" font-family="Helvetica,sans-Serif" font-size="32.00" fill="#29235c">average_order_total &#160;&#160;&#160;</text>
<text text-anchor="start" x="1233.7" y="-508.29" font-family="Helvetica,sans-Serif" font-style="italic" font-size="32.00" fill="#29235c">FLOAT</text>
<polygon fill="#e7e2dd" stroke="transparent" points="757.82,-427.09 757.82,-487.09 1347.82,-487.09 1347.82,-427.09 757.82,-427.09"/>
<polygon fill="none" stroke="#29235c" points="757.82,-427.09 757.82,-487.09 1347.82,-487.09 1347.82,-427.09 757.82,-427.09"/>
<text text-anchor="start" x="768.82" y="-447.29" font-family="Helvetica,sans-Serif" font-size="32.00" fill="#29235c">favorite_store &#160;&#160;&#160;</text>
<text text-anchor="start" x="1180.39" y="-448.29" font-family="Helvetica,sans-Serif" font-style="italic" font-size="32.00" fill="#29235c">VARCHAR</text>
<polygon fill="#e7e2dd" stroke="transparent" points="757.82,-367.09 757.82,-427.09 1347.82,-427.09 1347.82,-367.09 757.82,-367.09"/>
<polygon fill="none" stroke="#29235c" points="757.82,-367.09 757.82,-427.09 1347.82,-427.09 1347.82,-367.09 757.82,-367.09"/>
<text text-anchor="start" x="768.82" y="-387.29" font-family="Helvetica,sans-Serif" font-size="32.00" fill="#29235c">last_purchase_date &#160;&#160;&#160;</text>
<text text-anchor="start" x="1175.05" y="-388.29" font-family="Helvetica,sans-Serif" font-style="italic" font-size="32.00" fill="#29235c">DATETIME</text>
<polygon fill="#e7e2dd" stroke="transparent" points="757.82,-307.09 757.82,-367.09 1347.82,-367.09 1347.82,-307.09 757.82,-307.09"/>
<polygon fill="none" stroke="#29235c" points="757.82,-307.09 757.82,-367.09 1347.82,-367.09 1347.82,-307.09 757.82,-307.09"/>
<text text-anchor="start" x="768.53" y="-327.29" font-family="Helvetica,sans-Serif" font-size="32.00" fill="#29235c">most_purchased_category &#160;&#160;&#160;</text>
<text text-anchor="start" x="1180.61" y="-328.29" font-family="Helvetica,sans-Serif" font-style="italic" font-size="32.00" fill="#29235c">VARCHAR</text>
<polygon fill="#e7e2dd" stroke="transparent" points="757.82,-247.09 757.82,-307.09 1347.82,-307.09 1347.82,-247.09 757.82,-247.09"/>
<polygon fill="none" stroke="#29235c" points="757.82,-247.09 757.82,-307.09 1347.82,-307.09 1347.82,-247.09 757.82,-247.09"/>
<text text-anchor="start" x="768.82" y="-267.29" font-family="Helvetica,sans-Serif" font-size="32.00" fill="#29235c">total_orders &#160;&#160;&#160;</text>
<text text-anchor="start" x="1194.6" y="-268.29" font-family="Helvetica,sans-Serif" font-style="italic" font-size="32.00" fill="#29235c">INTEGER</text>
<polygon fill="#e7e2dd" stroke="transparent" points="757.82,-187.09 757.82,-247.09 1347.82,-247.09 1347.82,-187.09 757.82,-187.09"/>
<polygon fill="none" stroke="#29235c" points="757.82,-187.09 757.82,-247.09 1347.82,-247.09 1347.82,-187.09 757.82,-187.09"/>
<text text-anchor="start" x="768.82" y="-207.29" font-family="Helvetica,sans-Serif" font-size="32.00" fill="#29235c">lifetime_value &#160;&#160;&#160;</text>
<text text-anchor="start" x="1233.7" y="-208.29" font-family="Helvetica,sans-Serif" font-style="italic" font-size="32.00" fill="#29235c">FLOAT</text>
<polygon fill="#e7e2dd" stroke="transparent" points="757.82,-127.09 757.82,-187.09 1347.82,-187.09 1347.82,-127.09 757.82,-127.09"/>
<polygon fill="none" stroke="#29235c" points="757.82,-127.09 757.82,-187.09 1347.82,-187.09 1347.82,-127.09 757.82,-127.09"/>
<text text-anchor="start" x="768.82" y="-147.29" font-family="Helvetica,sans-Serif" font-size="32.00" fill="#29235c">order_frequency &#160;&#160;&#160;</text>
<text text-anchor="start" x="1233.7" y="-148.29" font-family="Helvetica,sans-Serif" font-style="italic" font-size="32.00" fill="#29235c">FLOAT</text>
<polygon fill="none" stroke="#29235c" stroke-width="2" points="756.82,-126.09 756.82,-728.09 1348.82,-728.09 1348.82,-126.09 756.82,-126.09"/>
</g>
<!-- CustomerInsight&#45;&gt;Customer -->
<!-- CustomerInsight&#45;&gt;Customer -->
<g id="edge4" class="edge">
<title>CustomerInsight:e&#45;&gt;Customer:w</title>
<path fill="none" stroke="#29235c" stroke-width="3" d="M1348.82,-577.09C1487.37,-577.09 1434.52,-729.95 1472.84,-863.09 1523.43,-1038.85 1417.04,-1668.14 1589.24,-1691.43"/>
<polygon fill="#29235c" stroke="#29235c" stroke-width="3" points="1589.1,-1694.93 1599.31,-1692.09 1589.56,-1687.94 1589.1,-1694.93"/>
<text text-anchor="middle" x="1593.09" y="-1663.29" font-family="Helvetica,sans-Serif" font-size="32.00" fill="#29235c">*</text>
<text text-anchor="middle" x="1357.71" y="-548.29" font-family="Helvetica,sans-Serif" font-size="32.00" fill="#29235c">1</text>
</g>
<!-- LoyaltyProgram -->
<g id="LoyaltyProgram" class="node">
<title>LoyaltyProgram</title>
<ellipse fill="none" stroke="black" stroke-width="0" cx="1052.82" cy="-2407.09" rx="287.17" ry="214.92"/>
<polygon fill="#1d71b8" stroke="transparent" points="851.82,-2497.09 851.82,-2557.09 1253.82,-2557.09 1253.82,-2497.09 851.82,-2497.09"/>
<polygon fill="none" stroke="#29235c" points="851.82,-2497.09 851.82,-2557.09 1253.82,-2557.09 1253.82,-2497.09 851.82,-2497.09"/>
<text text-anchor="start" x="878.56" y="-2518.29" font-family="Helvetica,sans-Serif" font-weight="bold" font-size="32.00" fill="#ffffff"> &#160;&#160;&#160;&#160;&#160;&#160;LoyaltyProgram &#160;&#160;&#160;&#160;&#160;&#160;</text>
<polygon fill="#e7e2dd" stroke="transparent" points="851.82,-2437.09 851.82,-2497.09 1253.82,-2497.09 1253.82,-2437.09 851.82,-2437.09"/>
<polygon fill="none" stroke="#29235c" points="851.82,-2437.09 851.82,-2497.09 1253.82,-2497.09 1253.82,-2437.09 851.82,-2437.09"/>
<text text-anchor="start" x="862.82" y="-2457.29" font-family="Helvetica,sans-Serif" font-size="32.00" fill="#29235c">id &#160;&#160;&#160;</text>
<text text-anchor="start" x="1100.6" y="-2458.29" font-family="Helvetica,sans-Serif" font-style="italic" font-size="32.00" fill="#29235c">INTEGER</text>
<polygon fill="#e7e2dd" stroke="transparent" points="851.82,-2377.09 851.82,-2437.09 1253.82,-2437.09 1253.82,-2377.09 851.82,-2377.09"/>
<polygon fill="none" stroke="#29235c" points="851.82,-2377.09 851.82,-2437.09 1253.82,-2437.09 1253.82,-2377.09 851.82,-2377.09"/>
<text text-anchor="start" x="862.82" y="-2397.29" font-family="Helvetica,sans-Serif" font-size="32.00" fill="#29235c">customer_id &#160;&#160;&#160;</text>
<text text-anchor="start" x="1100.6" y="-2398.29" font-family="Helvetica,sans-Serif" font-style="italic" font-size="32.00" fill="#29235c">INTEGER</text>
<polygon fill="#e7e2dd" stroke="transparent" points="851.82,-2317.09 851.82,-2377.09 1253.82,-2377.09 1253.82,-2317.09 851.82,-2317.09"/>
<polygon fill="none" stroke="#29235c" points="851.82,-2317.09 851.82,-2377.09 1253.82,-2377.09 1253.82,-2317.09 851.82,-2317.09"/>
<text text-anchor="start" x="862.82" y="-2337.29" font-family="Helvetica,sans-Serif" font-size="32.00" fill="#29235c">start_date &#160;&#160;&#160;</text>
<text text-anchor="start" x="1081.05" y="-2338.29" font-family="Helvetica,sans-Serif" font-style="italic" font-size="32.00" fill="#29235c">DATETIME</text>
<polygon fill="#e7e2dd" stroke="transparent" points="851.82,-2257.09 851.82,-2317.09 1253.82,-2317.09 1253.82,-2257.09 851.82,-2257.09"/>
<polygon fill="none" stroke="#29235c" points="851.82,-2257.09 851.82,-2317.09 1253.82,-2317.09 1253.82,-2257.09 851.82,-2257.09"/>
<text text-anchor="start" x="862.66" y="-2277.29" font-family="Helvetica,sans-Serif" font-size="32.00" fill="#29235c">points_earned &#160;&#160;&#160;</text>
<text text-anchor="start" x="1100.71" y="-2278.29" font-family="Helvetica,sans-Serif" font-style="italic" font-size="32.00" fill="#29235c">INTEGER</text>
<polygon fill="none" stroke="#29235c" stroke-width="2" points="850.82,-2256.09 850.82,-2558.09 1254.82,-2558.09 1254.82,-2256.09 850.82,-2256.09"/>
</g>
<!-- LoyaltyProgram&#45;&gt;Customer -->
<!-- LoyaltyProgram&#45;&gt;Customer -->
<g id="edge6" class="edge">
<title>LoyaltyProgram:e&#45;&gt;Customer:w</title>
<path fill="none" stroke="#29235c" stroke-width="3" d="M1254.82,-2407.09C1393.75,-2407.09 1404.78,-2304.21 1472.84,-2183.09 1581.51,-1989.71 1380.43,-1701.27 1589.06,-1692.31"/>
<polygon fill="#29235c" stroke="#29235c" stroke-width="3" points="1589.39,-1695.8 1599.31,-1692.09 1589.24,-1688.8 1589.39,-1695.8"/>
<text text-anchor="middle" x="1605.53" y="-1692.09" font-family="Helvetica,sans-Serif" font-size="32.00" fill="#29235c">*</text>
<text text-anchor="middle" x="1263.71" y="-2416.69" font-family="Helvetica,sans-Serif" font-size="32.00" fill="#29235c">1</text>
</g>
<!-- Order -->
<g id="Order" class="node">
<title>Order</title>
<ellipse fill="none" stroke="black" stroke-width="0" cx="1052.82" cy="-1917.09" rx="266.66" ry="257.27"/>
<polygon fill="#1d71b8" stroke="transparent" points="866.82,-2037.09 866.82,-2097.09 1239.82,-2097.09 1239.82,-2037.09 866.82,-2037.09"/>
<polygon fill="none" stroke="#29235c" points="866.82,-2037.09 866.82,-2097.09 1239.82,-2097.09 1239.82,-2037.09 866.82,-2037.09"/>
<text text-anchor="start" x="950.18" y="-2058.29" font-family="Helvetica,sans-Serif" font-weight="bold" font-size="32.00" fill="#ffffff"> &#160;&#160;&#160;&#160;&#160;&#160;Order &#160;&#160;&#160;&#160;&#160;&#160;</text>
<polygon fill="#e7e2dd" stroke="transparent" points="866.82,-1977.09 866.82,-2037.09 1239.82,-2037.09 1239.82,-1977.09 866.82,-1977.09"/>
<polygon fill="none" stroke="#29235c" points="866.82,-1977.09 866.82,-2037.09 1239.82,-2037.09 1239.82,-1977.09 866.82,-1977.09"/>
<text text-anchor="start" x="877.82" y="-1997.29" font-family="Helvetica,sans-Serif" font-size="32.00" fill="#29235c">id &#160;&#160;&#160;</text>
<text text-anchor="start" x="1086.6" y="-1998.29" font-family="Helvetica,sans-Serif" font-style="italic" font-size="32.00" fill="#29235c">INTEGER</text>
<polygon fill="#e7e2dd" stroke="transparent" points="866.82,-1917.09 866.82,-1977.09 1239.82,-1977.09 1239.82,-1917.09 866.82,-1917.09"/>
<polygon fill="none" stroke="#29235c" points="866.82,-1917.09 866.82,-1977.09 1239.82,-1977.09 1239.82,-1917.09 866.82,-1917.09"/>
<text text-anchor="start" x="877.41" y="-1937.29" font-family="Helvetica,sans-Serif" font-size="32.00" fill="#29235c">customer_id &#160;&#160;&#160;</text>
<text text-anchor="start" x="1086.71" y="-1938.29" font-family="Helvetica,sans-Serif" font-style="italic" font-size="32.00" fill="#29235c">INTEGER</text>
<polygon fill="#e7e2dd" stroke="transparent" points="866.82,-1857.09 866.82,-1917.09 1239.82,-1917.09 1239.82,-1857.09 866.82,-1857.09"/>
<polygon fill="none" stroke="#29235c" points="866.82,-1857.09 866.82,-1917.09 1239.82,-1917.09 1239.82,-1857.09 866.82,-1857.09"/>
<text text-anchor="start" x="877.67" y="-1877.29" font-family="Helvetica,sans-Serif" font-size="32.00" fill="#29235c">order_date &#160;&#160;&#160;</text>
<text text-anchor="start" x="1067.44" y="-1878.29" font-family="Helvetica,sans-Serif" font-style="italic" font-size="32.00" fill="#29235c">DATETIME</text>
<polygon fill="#e7e2dd" stroke="transparent" points="866.82,-1797.09 866.82,-1857.09 1239.82,-1857.09 1239.82,-1797.09 866.82,-1797.09"/>
<polygon fill="none" stroke="#29235c" points="866.82,-1797.09 866.82,-1857.09 1239.82,-1857.09 1239.82,-1797.09 866.82,-1797.09"/>
<text text-anchor="start" x="877.82" y="-1817.29" font-family="Helvetica,sans-Serif" font-size="32.00" fill="#29235c">total_amount &#160;&#160;&#160;</text>
<text text-anchor="start" x="1125.7" y="-1818.29" font-family="Helvetica,sans-Serif" font-style="italic" font-size="32.00" fill="#29235c">FLOAT</text>
<polygon fill="#e7e2dd" stroke="transparent" points="866.82,-1737.09 866.82,-1797.09 1239.82,-1797.09 1239.82,-1737.09 866.82,-1737.09"/>
<polygon fill="none" stroke="#29235c" points="866.82,-1737.09 866.82,-1797.09 1239.82,-1797.09 1239.82,-1737.09 866.82,-1737.09"/>
<text text-anchor="start" x="877.82" y="-1757.29" font-family="Helvetica,sans-Serif" font-size="32.00" fill="#29235c">store &#160;&#160;&#160;</text>
<text text-anchor="start" x="1072.39" y="-1758.29" font-family="Helvetica,sans-Serif" font-style="italic" font-size="32.00" fill="#29235c">VARCHAR</text>
<polygon fill="none" stroke="#29235c" stroke-width="2" points="865.32,-1736.09 865.32,-2098.09 1240.32,-2098.09 1240.32,-1736.09 865.32,-1736.09"/>
</g>
<!-- Order&#45;&gt;Customer -->
<!-- Order&#45;&gt;Customer -->
<g id="edge8" class="edge">
<title>Order:e&#45;&gt;Customer:w</title>
<path fill="none" stroke="#29235c" stroke-width="3" d="M1240.82,-1947.09C1432.91,-1947.09 1404.86,-1700.98 1589.21,-1692.33"/>
<polygon fill="#29235c" stroke="#29235c" stroke-width="3" points="1589.39,-1695.82 1599.31,-1692.09 1589.23,-1688.82 1589.39,-1695.82"/>
<text text-anchor="middle" x="1593.09" y="-1663.29" font-family="Helvetica,sans-Serif" font-size="32.00" fill="#29235c">*</text>
<text text-anchor="middle" x="1249.71" y="-1918.29" font-family="Helvetica,sans-Serif" font-size="32.00" fill="#29235c">1</text>
</g>
<!-- OrderItem -->
<g id="OrderItem" class="node">
<title>OrderItem</title>
<ellipse fill="none" stroke="black" stroke-width="0" cx="298.4" cy="-1917.09" rx="298.3" ry="257.27"/>
<polygon fill="#1d71b8" stroke="transparent" points="89.4,-2037.09 89.4,-2097.09 507.4,-2097.09 507.4,-2037.09 89.4,-2037.09"/>
<polygon fill="none" stroke="#29235c" points="89.4,-2037.09 89.4,-2097.09 507.4,-2097.09 507.4,-2037.09 89.4,-2037.09"/>
<text text-anchor="start" x="164.15" y="-2058.29" font-family="Helvetica,sans-Serif" font-weight="bold" font-size="32.00" fill="#ffffff"> &#160;&#160;&#160;&#160;&#160;&#160;OrderItem &#160;&#160;&#160;&#160;&#160;&#160;</text>
<polygon fill="#e7e2dd" stroke="transparent" points="89.4,-1977.09 89.4,-2037.09 507.4,-2037.09 507.4,-1977.09 89.4,-1977.09"/>
<polygon fill="none" stroke="#29235c" points="89.4,-1977.09 89.4,-2037.09 507.4,-2037.09 507.4,-1977.09 89.4,-1977.09"/>
<text text-anchor="start" x="100.4" y="-1997.29" font-family="Helvetica,sans-Serif" font-size="32.00" fill="#29235c">id &#160;&#160;&#160;</text>
<text text-anchor="start" x="354.18" y="-1998.29" font-family="Helvetica,sans-Serif" font-style="italic" font-size="32.00" fill="#29235c">INTEGER</text>
<polygon fill="#e7e2dd" stroke="transparent" points="89.4,-1917.09 89.4,-1977.09 507.4,-1977.09 507.4,-1917.09 89.4,-1917.09"/>
<polygon fill="none" stroke="#29235c" points="89.4,-1917.09 89.4,-1977.09 507.4,-1977.09 507.4,-1917.09 89.4,-1917.09"/>
<text text-anchor="start" x="100.4" y="-1937.29" font-family="Helvetica,sans-Serif" font-size="32.00" fill="#29235c">order_id &#160;&#160;&#160;</text>
<text text-anchor="start" x="354.18" y="-1938.29" font-family="Helvetica,sans-Serif" font-style="italic" font-size="32.00" fill="#29235c">INTEGER</text>
<polygon fill="#e7e2dd" stroke="transparent" points="89.4,-1857.09 89.4,-1917.09 507.4,-1917.09 507.4,-1857.09 89.4,-1857.09"/>
<polygon fill="none" stroke="#29235c" points="89.4,-1857.09 89.4,-1917.09 507.4,-1917.09 507.4,-1857.09 89.4,-1857.09"/>
<text text-anchor="start" x="100.36" y="-1877.29" font-family="Helvetica,sans-Serif" font-size="32.00" fill="#29235c">product_name &#160;&#160;&#160;</text>
<text text-anchor="start" x="340.19" y="-1878.29" font-family="Helvetica,sans-Serif" font-style="italic" font-size="32.00" fill="#29235c">VARCHAR</text>
<polygon fill="#e7e2dd" stroke="transparent" points="89.4,-1797.09 89.4,-1857.09 507.4,-1857.09 507.4,-1797.09 89.4,-1797.09"/>
<polygon fill="none" stroke="#29235c" points="89.4,-1797.09 89.4,-1857.09 507.4,-1857.09 507.4,-1797.09 89.4,-1797.09"/>
<text text-anchor="start" x="100.4" y="-1817.29" font-family="Helvetica,sans-Serif" font-size="32.00" fill="#29235c">quantity &#160;&#160;&#160;</text>
<text text-anchor="start" x="354.18" y="-1818.29" font-family="Helvetica,sans-Serif" font-style="italic" font-size="32.00" fill="#29235c">INTEGER</text>
<polygon fill="#e7e2dd" stroke="transparent" points="89.4,-1737.09 89.4,-1797.09 507.4,-1797.09 507.4,-1737.09 89.4,-1737.09"/>
<polygon fill="none" stroke="#29235c" points="89.4,-1737.09 89.4,-1797.09 507.4,-1797.09 507.4,-1737.09 89.4,-1737.09"/>
<text text-anchor="start" x="100.4" y="-1757.29" font-family="Helvetica,sans-Serif" font-size="32.00" fill="#29235c">price_per_unit &#160;&#160;&#160;</text>
<text text-anchor="start" x="393.28" y="-1758.29" font-family="Helvetica,sans-Serif" font-style="italic" font-size="32.00" fill="#29235c">FLOAT</text>
<polygon fill="none" stroke="#29235c" stroke-width="2" points="88.4,-1736.09 88.4,-2098.09 508.4,-2098.09 508.4,-1736.09 88.4,-1736.09"/>
</g>
<!-- OrderItem&#45;&gt;Order -->
<!-- OrderItem&#45;&gt;Order -->
<g id="edge10" class="edge">
<title>OrderItem:e&#45;&gt;Order:w</title>
<path fill="none" stroke="#29235c" stroke-width="3" d="M508.4,-1947.09C666.01,-1947.09 703.17,-2004.54 855.61,-2007.01"/>
<polygon fill="#29235c" stroke="#29235c" stroke-width="3" points="855.79,-2010.51 865.82,-2007.09 855.85,-2003.51 855.79,-2010.51"/>
<text text-anchor="middle" x="872.04" y="-2016.69" font-family="Helvetica,sans-Serif" font-size="32.00" fill="#29235c">*</text>
<text text-anchor="middle" x="499.5" y="-1918.29" font-family="Helvetica,sans-Serif" font-size="32.00" fill="#29235c">1</text>
</g>
</g>
</svg>
